<svg xmlns="http://www.w3.org/2000/svg" xmlns:xlink="http://www.w3.org/1999/xlink" width="216" height="260" viewBox="0 0 216 260"><defs><rect id="header-a" width="202.8" height="168" x="0" y="0" rx="6"/><linearGradient id="header-c" x1="70.695%" x2="29.305%" y1="0%" y2="100%"><stop offset="0%" stop-color="#B5A2FC"/><stop offset="100%" stop-color="#7E69F7"/></linearGradient><linearGradient id="header-d" x1="100%" x2="0%" y1="26.367%" y2="73.633%"><stop offset="0%" stop-color="#B5A2FC"/><stop offset="100%" stop-color="#7E69F7"/></linearGradient></defs><g fill="none" fill-rule="evenodd" transform="translate(7 12)"><mask id="header-b" fill="#fff"><use xlink:href="#header-a"/></mask><g mask="url(#header-b)"><g transform="translate(-38.4 -9.6)"><rect width="121.44" height="188.76" fill="url(#header-c)" opacity=".6" rx="3.96" transform="translate(120.36 73.8)"/><rect width="121.44" height="188.76" fill="url(#header-c)" opacity=".6" rx="3.96" transform="translate(38.52 100.2)"/><rect width="121.44" height="188.76" fill="url(#header-c)" rx="3.96" transform="translate(92.64 50.04)"/><rect width="121.44" height="188.76" fill="url(#header-c)" rx="3.96" transform="translate(62.28 84.36)"/><g transform="translate(77.601 29.66)"><rect width="121.44" height="188.76" fill="url(#header-c)" rx="6.6"/><rect width="114.048" height="179.52" x="3.696" y="4.045" fill="#282080" fill-rule="nonzero" rx="5.28"/></g><g transform="translate(93.29 46.171)"><rect width="91.238" height="62.726" fill="url(#header-d)" rx="3.96"/><rect width="75.24" height="10.56" y="72.509" fill="#9175EC" fill-rule="nonzero" opacity=".67" rx="2.957"/><rect width="52.8" height="6.6" y="88.349" fill="#9175EC" fill-rule="nonzero" opacity=".4" rx="2.957"/><rect width="93.72" height="6.6" y="100.229" fill="#9175EC" fill-rule="nonzero" opacity=".2" rx="2.957"/><rect width="93.72" height="6.6" y="112.109" fill="#9175EC" fill-rule="nonzero" opacity=".1" rx="2.957"/><rect width="93.72" height="6.6" y="125.309" fill="#9175EC" fill-rule="nonzero" opacity=".05" rx="2.957"/><path fill="#FFF" d="M42.4856259,23.0187338 L54.3299896,30.9149763 C54.9850938,31.3517124 55.1621161,32.2368238 54.72538,32.8919279 C54.6209763,33.0485333 54.4865951,33.1829146 54.3299896,33.2873182 L42.4856259,41.1835607 C41.8305218,41.6202968 40.9454104,41.4432745 40.5086743,40.7881704 C40.3525544,40.5539906 40.2692451,40.2788388 40.2692451,39.9973897 L40.2692451,24.2049048 C40.2692451,23.4175676 40.907508,22.7793047 41.6948452,22.7793047 C41.9762943,22.7793047 42.2514461,22.8626139 42.4856259,23.0187338 Z"/></g></g></g></g></svg>