<svg xmlns="http://www.w3.org/2000/svg" width="26" height="26" viewBox="0 0 26 26"><defs><linearGradient id="apple-a" x1="50%" x2="50%" y1="0%" y2="100%"><stop offset="0%" stop-color="#F452FF"/><stop offset="100%" stop-color="#832BC1"/></linearGradient></defs><g fill="none" fill-rule="evenodd"><path fill="url(#apple-a)" d="M25.4856457,22.5352621 C25.2329116,23.1772285 24.6497425,24.0811271 23.8227252,24.7178238 C23.3452582,25.0855621 22.7752114,25.4370782 21.9922108,25.6690458 C21.1575475,25.916409 20.1294589,26 18.849876,26 L7.15002067,26 C5.87054111,26 4.84245247,25.916409 4.00768583,25.6690458 C3.22468525,25.4370782 2.65474185,25.0855621 2.17717142,24.7178238 C1.35025752,24.0810237 0.766985121,23.1772285 0.51425097,22.5352621 C0.00516627456,21.2418233 0,19.7742797 0,18.8500258 L0,18.8500258 L0,7.14997417 L0,7.14997417 C0,6.2257203 0.00516627456,4.75817669 0.51425097,3.46473791 C0.766985121,2.82277153 1.35015419,1.91887295 2.17717142,1.28217621 C2.65463852,0.914437865 3.22468525,0.56292175 4.00768583,0.330954179 C4.84234914,0.0835909868 5.87043778,0 7.15002067,0 L7.15002067,0 L18.8499793,0 L18.8499793,0 C20.1294589,0 21.1575475,0.0835909868 21.9923142,0.330954179 C22.7753147,0.56292175 23.3452582,0.914541191 23.8228286,1.28217621 C24.6497425,1.91897627 25.2330149,2.82277153 25.485749,3.46473791 C25.9948337,4.75817669 26,6.2257203 26,7.14997417 L26,18.8500258 C26,19.7741764 25.9947304,21.24172 25.4856457,22.5352621 Z"/><path fill="#FFF" fill-rule="nonzero" d="M10.9232,11.8815 C10.5456,11.4831 9.8824,11.2277 9.0995,11.2277 C8.3165,11.2277 7.6533,11.4831 7.2757,11.8815 C7.0787,12.0894 6.9745,12.3025 6.9417,12.6061 C6.8781,13.194 6.9138,13.7002 6.9827,14.5095 C7.0483,15.2807 7.1729,16.3091 7.3355,17.3565 C7.4512,18.1019 7.5452,18.5042 7.6308,18.7923 C7.7696,19.2592 8.2883,19.6675 9.0995,19.6675 C9.9106,19.6675 10.4293,19.2591 10.5681,18.7923 C10.6537,18.5042 10.7477,18.1019 10.8634,17.3565 C11.026,16.3091 11.1506,15.2807 11.2162,14.5095 C11.2851,13.7001 11.3208,13.1939 11.2572,12.6061 C11.2244,12.3026 11.1202,12.0894 10.9232,11.8815 Z M7.0421,8.3342 C7.0421,9.4715 7.9641,10.3935 9.1014,10.3935 C10.2388,10.3935 11.1608,9.4715 11.1608,8.3342 C11.1608,7.1968 10.2388,6.2748 9.1014,6.2748 C7.9641,6.2748 7.0421,7.1968 7.0421,8.3342 Z M9.0759,0.207163131 C4.2596,0.2209 0.3131,4.1282 0.2535,8.9442 C0.2051,12.8455 2.6955,16.1827 6.173,17.4059 C6.2574,17.4356 6.3431,17.3655 6.3298,17.277 C6.2842,16.9741 6.2412,16.6697 6.2017,16.3704 C6.1877,16.2646 6.1203,16.1734 6.0226,16.1307 C3.274,14.9299 1.3547,12.1733 1.3855,8.9802 C1.4259,4.7898 4.8477,1.3736 9.0381,1.3397 C13.322,1.3051 16.8181,4.7799 16.8181,9.0559 C16.8181,12.217 14.9072,14.9398 12.18,16.131 C12.0823,16.1737 12.0153,16.2652 12.0014,16.3709 C11.9619,16.6701 11.9189,16.9744 11.8734,17.277 C11.86,17.3655 11.9457,17.4356 12.0301,17.406 C15.4744,16.1945 17.9503,12.9092 17.9503,9.056 C17.9501,4.1681 13.9668,0.1932 9.0759,0.207163131 Z M8.916,4.2667 C11.6463,4.161 13.9011,6.3514 13.9011,9.0586 C13.9011,10.4354 13.3178,11.6784 12.3855,12.5538 C12.3064,12.628 12.2639,12.7334 12.27,12.8417 C12.2886,13.171 12.2818,13.491 12.2599,13.8524 C12.254,13.9487 12.362,14.0102 12.4417,13.9559 C14.0051,12.8875 15.0334,11.091 15.0334,9.0586 C15.0334,5.7122 12.246,3.0045 8.8711,3.1353 C5.7347,3.2569 3.2184,5.8428 3.1782,8.9814 C3.1518,11.0456 4.1864,12.8743 5.7699,13.9561 C5.8494,14.0104 5.9571,13.9488 5.9512,13.8526 C5.9292,13.491 5.9225,13.171 5.941,12.8417 C5.9471,12.7335 5.9047,12.6281 5.8258,12.554 C4.8644,11.6514 4.274,10.3579 4.3116,8.9299 C4.3778,6.4169 6.4039,4.364 8.916,4.2667 Z" transform="translate(3.983 3.082)"/></g></svg>