<svg xmlns="http://www.w3.org/2000/svg" width="26" height="26" viewBox="0 0 26 26"><g fill="none"><rect width="25.5" height="25.5" x=".25" y=".25" fill="#FFF" stroke="#9AA0A6" stroke-width=".5" rx="8"/><g transform="translate(3.75 4)"><polygon fill="#FAB908" points="7.875 5.727 7.875 8.455 7.875 9.545 7.875 12.273 10.125 12.273 10.125 9.545 10.125 8.455 10.125 5.727"/><circle cx="1.125" cy="8.386" r="1.125" fill="#0066D9"/><circle cx="1.125" cy="9.614" r="1.125" fill="#0066D9"/><rect width="2.25" height="1.227" y="8.386" fill="#0066D9"/><circle cx="16.875" cy="9.614" r="1.125" fill="#4285F4"/><circle cx="16.875" cy="8.386" r="1.125" fill="#4285F4"/><rect width="2.25" height="1.227" x="15.75" y="8.386" fill="#4285F4" transform="rotate(180 16.875 9)"/><circle cx="5.011" cy="12.068" r="1.125" fill="#EA4335"/><circle cx="5.011" cy="13.295" r="1.125" fill="#EA4335"/><rect width="2.25" height="1.227" x="3.886" y="12.068" fill="#EA4335"/><circle cx="5.011" cy="4.705" r="1.125" fill="#EA4335"/><circle cx="5.011" cy="8.693" r="1.125" fill="#EA4335"/><rect width="2.25" height="4.014" x="3.886" y="4.705" fill="#EA4335"/><circle cx="12.989" cy="5.932" r="1.125" fill="#34A853"/><circle cx="12.989" cy="4.705" r="1.125" fill="#34A853"/><rect width="2.25" height="1.227" x="11.864" y="4.705" fill="#34A853" transform="rotate(180 12.989 5.318)"/><circle cx="9" cy="2.352" r="1.125" fill="#FAB908"/><circle cx="9" cy="1.125" r="1.125" fill="#FAB908"/><rect width="2.25" height="1.227" x="7.875" y="1.125" fill="#FAB908" transform="rotate(180 9 1.739)"/><circle cx="9" cy="16.875" r="1.125" fill="#FAB908"/><circle cx="9" cy="15.648" r="1.125" fill="#FAB908"/><rect width="2.25" height="1.227" x="7.875" y="15.648" fill="#FAB908" transform="rotate(180 9 16.261)"/><circle cx="12.989" cy="13.295" r="1.125" fill="#34A853"/><circle cx="12.989" cy="9.307" r="1.125" fill="#34A853"/><rect width="2.25" height="3.989" x="11.864" y="9.307" fill="#34A853" transform="rotate(180 12.989 11.301)"/><circle cx="9" cy="5.727" r="1.125" fill="#FAB908"/><circle cx="9" cy="12.273" r="1.125" fill="#FAB908"/></g></g></svg>