<svg xmlns="http://www.w3.org/2000/svg" width="26" height="26" viewBox="0 0 26 26"><g fill="none"><path fill="#1DD760" d="M25.7661156,12.844 C25.7661156,15.1974815 25.1902637,17.3506667 24.03856,19.3035556 C22.8868563,21.2564444 21.309523,22.8087407 19.30656,23.9604444 C17.303597,25.1121481 15.1504119,25.688 12.8470044,25.688 C10.543597,25.688 8.39041185,25.1121481 6.38744889,23.9604444 C4.38448593,22.8087407 2.83218963,21.2564444 1.73056,19.3035556 C0.62893037,17.3506667 0.0530785185,15.1974815 0.00300444444,12.844 C-0.0470696296,10.4905185 0.528782222,8.33733333 1.73056,6.38444444 C2.93233778,4.43155556 4.48463407,2.87925926 6.38744889,1.72755556 C8.2902637,0.575851852 10.4434489,-3.55271368e-15 12.8470044,-3.55271368e-15 C15.25056,-3.55271368e-15 17.4037452,0.575851852 19.30656,1.72755556 C21.2093748,2.87925926 22.7867081,4.43155556 24.03856,6.38444444 C25.2904119,8.33733333 25.8662637,10.4905185 25.7661156,12.844 L25.7661156,12.844 Z"/><path fill="#000" d="M18.9310044 18.1017778C18.9310044 17.7512593 18.7557452 17.4758519 18.4052267 17.2755556 16.2520415 15.9736296 13.7483378 15.3226667 10.8941156 15.3226667 9.39189333 15.3226667 7.78952296 15.522963 6.08700444 15.9235556 5.63633778 16.0237037 5.41100444 16.2991111 5.41100444 16.7497778 5.41100444 17.0001481 5.48611556 17.2004444 5.63633778 17.3506667 5.78656 17.5008889 5.9868563 17.576 6.23722667 17.576 6.28730074 17.576 6.48759704 17.5259259 6.83811556 17.4257778 8.2902637 17.1253333 9.6422637 16.9751111 10.8941156 16.9751111 13.4478933 16.9751111 15.6761896 17.550963 17.5790044 18.7026667 17.7793007 18.8528889 17.95456 18.928 18.1047822 18.928 18.3050785 18.928 18.4803378 18.8528889 18.63056 18.7026667 18.7807822 18.5524444 18.8809304 18.3521481 18.9310044 18.1017778L18.9310044 18.1017778zM20.5083378 14.4964444C20.5083378 14.0457778 20.3080415 13.6952593 19.9074489 13.4448889 17.253523 11.8925926 14.1990044 11.1164444 10.7438933 11.1164444 9.04137481 11.1164444 7.3388563 11.3417778 5.63633778 11.7924444 5.13559704 11.9426667 4.88522667 12.3182222 4.88522667 12.9191111 4.88522667 13.1694815 4.96033778 13.3948148 5.11056 13.5951111 5.26078222 13.7954074 5.51115259 13.8955556 5.86167111 13.8955556 5.91174519 13.8955556 6.11204148 13.8454815 6.46256 13.7453333 7.81456 13.3948148 9.21663407 13.2195556 10.6687822 13.2195556 13.7733748 13.2195556 16.5024119 13.9205926 18.8558933 15.3226667 19.1062637 15.4728889 19.331597 15.548 19.5318933 15.548 19.7822637 15.548 20.007597 15.4478519 20.2078933 15.2475556 20.4081896 15.0472593 20.5083378 14.7968889 20.5083378 14.4964444L20.5083378 14.4964444zM22.3110044 10.3653333C22.3110044 9.81451852 22.0856711 9.41392593 21.6350044 9.16355556 20.2329304 8.36237037 18.605523 7.73644444 16.7527822 7.28577778 14.9000415 6.83511111 12.9721896 6.63481481 10.9692267 6.68488889 8.71589333 6.68488889 6.68789333 6.9602963 4.88522667 7.51111111 4.6348563 7.56118519 4.40952296 7.68637037 4.20922667 7.88666667 4.00893037 8.08696296 3.93381926 8.36237037 3.98389333 8.71288889 3.98389333 9.06340741 4.10907852 9.36385185 4.35944889 9.61422222 4.60981926 9.86459259 4.88522667 9.96474074 5.18567111 9.91466667 5.28581926 9.91466667 5.51115259 9.88962963 5.86167111 9.83955556 7.36389333 9.38888889 9.06641185 9.16355556 10.9692267 9.16355556 12.7718933 9.16355556 14.5244859 9.36385185 16.2270044 9.76444444 17.929523 10.165037 19.331597 10.6908148 20.4332267 11.3417778 20.683597 11.492 20.9089304 11.5671111 21.1092267 11.5671111 21.4597452 11.5671111 21.7351526 11.4419259 21.9354489 11.1915556 22.1357452 10.9411852 22.2609304 10.6657778 22.3110044 10.3653333z"/></g></svg>