<svg xmlns="http://www.w3.org/2000/svg" width="226" height="140" viewBox="0 0 226 140">
  <g fill="none" transform="translate(-1)">
    <rect width="227" height="140" fill="#FFB700"/>
    <path fill="#FFDD85" d="M24.1666667,48.1818182 L43.5,48.1818182 L43.5,53 L24.1666667,53 L24.1666667,48.1818182 Z M0,48.1818182 L19.3333333,48.1818182 L19.3333333,53 L0,53 L0,48.1818182 Z M24.1666667,38.5454545 L43.5,38.5454545 L43.5,43.3636364 L24.1666667,43.3636364 L24.1666667,38.5454545 Z M0,38.5454545 L19.3333333,38.5454545 L19.3333333,43.3636364 L0,43.3636364 L0,38.5454545 Z M24.1666667,28.9090909 L43.5,28.9090909 L43.5,33.7272727 L24.1666667,33.7272727 L24.1666667,28.9090909 Z M24.1666667,19.2727273 L43.5,19.2727273 L43.5,24.0909091 L24.1666667,24.0909091 L24.1666667,19.2727273 Z M24.1666667,9.63636364 L43.5,9.63636364 L43.5,14.4545455 L24.1666667,14.4545455 L24.1666667,9.63636364 Z M24.1666667,0 L43.5,0 L43.5,4.81818182 L24.1666667,4.81818182 L24.1666667,0 Z M48.3333333,48.1818182 L67.6666667,48.1818182 L67.6666667,53 L48.3333333,53 L48.3333333,48.1818182 Z M48.3333333,38.5454545 L67.6666667,38.5454545 L67.6666667,43.3636364 L48.3333333,43.3636364 L48.3333333,38.5454545 Z M48.3333333,28.9090909 L67.6666667,28.9090909 L67.6666667,33.7272727 L48.3333333,33.7272727 L48.3333333,28.9090909 Z M48.3333333,19.2727273 L67.6666667,19.2727273 L67.6666667,24.0909091 L48.3333333,24.0909091 L48.3333333,19.2727273 Z M48.3333333,9.63636364 L67.6666667,9.63636364 L67.6666667,14.4545455 L48.3333333,14.4545455 L48.3333333,9.63636364 Z M72.5,48.1818182 L91.8333333,48.1818182 L91.8333333,53 L72.5,53 L72.5,48.1818182 Z M96.6666667,48.1818182 L116,48.1818182 L116,53 L96.6666667,53 L96.6666667,48.1818182 Z M72.5,38.5454545 L91.8333333,38.5454545 L91.8333333,43.3636364 L72.5,43.3636364 L72.5,38.5454545 Z M96.6666667,38.5454545 L116,38.5454545 L116,43.3636364 L96.6666667,43.3636364 L96.6666667,38.5454545 Z M72.5,28.9090909 L91.8333333,28.9090909 L91.8333333,33.7272727 L72.5,33.7272727 L72.5,28.9090909 Z M96.6666667,28.9090909 L116,28.9090909 L116,33.7272727 L96.6666667,33.7272727 L96.6666667,28.9090909 Z M72.5,19.2727273 L91.8333333,19.2727273 L91.8333333,24.0909091 L72.5,24.0909091 L72.5,19.2727273 Z M96.6666667,19.2727273 L116,19.2727273 L116,24.0909091 L96.6666667,24.0909091 L96.6666667,19.2727273 Z M96.6666667,9.63636364 L116,9.63636364 L116,14.4545455 L96.6666667,14.4545455 L96.6666667,9.63636364 Z M187.789474,48.1818182 L187.789474,53 L168.421053,53 L168.421053,48.1818182 L187.789474,48.1818182 Z M212,48.1818182 L212,53 L192.631579,53 L192.631579,48.1818182 L212,48.1818182 Z M187.789474,38.5454545 L187.789474,43.3636364 L168.421053,43.3636364 L168.421053,38.5454545 L187.789474,38.5454545 Z M212,38.5454545 L212,43.3636364 L192.631579,43.3636364 L192.631579,38.5454545 L212,38.5454545 Z M187.789474,28.9090909 L187.789474,33.7272727 L168.421053,33.7272727 L168.421053,28.9090909 L187.789474,28.9090909 Z M212,28.9090909 L212,33.7272727 L192.631579,33.7272727 L192.631579,28.9090909 L212,28.9090909 Z M187.789474,19.2727273 L187.789474,24.0909091 L168.421053,24.0909091 L168.421053,19.2727273 L187.789474,19.2727273 Z M212,19.2727273 L212,24.0909091 L192.631579,24.0909091 L192.631579,19.2727273 L212,19.2727273 Z M187.789474,9.63636364 L187.789474,14.4545455 L168.421053,14.4545455 L168.421053,9.63636364 L187.789474,9.63636364 Z M187.789474,0 L187.789474,4.81818182 L168.421053,4.81818182 L168.421053,0 L187.789474,0 Z M163.578947,48.1818182 L163.578947,53 L144.210526,53 L144.210526,48.1818182 L163.578947,48.1818182 Z M163.578947,38.5454545 L163.578947,43.3636364 L144.210526,43.3636364 L144.210526,38.5454545 L163.578947,38.5454545 Z M163.578947,28.9090909 L163.578947,33.7272727 L144.210526,33.7272727 L144.210526,28.9090909 L163.578947,28.9090909 Z M139.368421,48.1818182 L139.368421,53 L120,53 L120,48.1818182 L139.368421,48.1818182 Z M139.368421,38.5454545 L139.368421,43.3636364 L120,43.3636364 L120,38.5454545 L139.368421,38.5454545 Z M139.368421,28.9090909 L139.368421,33.7272727 L120,33.7272727 L120,28.9090909 L139.368421,28.9090909 Z M139.368421,19.2727273 L139.368421,24.0909091 L120,24.0909091 L120,19.2727273 L139.368421,19.2727273 Z" transform="translate(8 81)"/>
  </g>
</svg>
