<svg xmlns="http://www.w3.org/2000/svg" xmlns:xlink="http://www.w3.org/1999/xlink" width="236" height="236" viewBox="0 0 236 236"><defs><linearGradient id="chats-with-kent-a" x1="50%" x2="50%" y1="0%" y2="100%"><stop offset="0%" stop-color="#6633EC"/><stop offset="100%" stop-color="#4817C7"/></linearGradient><linearGradient id="chats-with-kent-b" x1="100%" x2="0%" y1="16.421%" y2="83.579%"><stop offset="0%" stop-color="#B5A2FC"/><stop offset="100%" stop-color="#7E69F7"/></linearGradient><path id="chats-with-kent-c" d="M133.707053,4.07695811 L150.875705,72.9366576 C151.594037,75.8177304 149.840789,78.7356247 146.959716,79.4539569 L69.56,98.751 L52.8561767,123.774156 L47.96,104.137 L23.8469203,110.149424 C20.9658474,110.867757 18.0479531,109.114509 17.329621,106.233436 L0.160969619,37.3737365 C-0.557362525,34.4926636 1.19588524,31.5747693 4.07695811,30.8564372 L127.189754,0.160969619 C130.070827,-0.557362525 132.988721,1.19588524 133.707053,4.07695811 Z"/></defs><g fill="none" fill-rule="evenodd" transform="translate(-8 20)"><g transform="translate(.538 .18)"><path fill="url(#chats-with-kent-a)" fill-rule="nonzero" d="M88.1229218,83.5696029 L88.1231356,83.5697315 L183.749366,112.810392 C186.588537,113.679049 188.186558,116.684463 187.319082,119.523996 L170.661027,174.019494 C169.815185,176.788215 166.936863,178.376798 164.161592,177.649988 L163.948349,177.589494 C163.948194,177.589447 163.94804,177.5894 163.948027,177.588889 L146.681129,172.308334 L141.565118,189.184477 L128.323129,166.695334 L68.3219048,148.348705 C65.4827335,147.480048 63.8847127,144.474634 64.7521881,141.635101 L81.4102434,87.1396027 C82.277774,84.2998892 85.2833498,82.7016092 88.1229218,83.5696029 Z" transform="rotate(-5 126.036 136.259)"/><text fill="#7A4CF5" font-family="IBMPlexMono-SemiBold, IBM Plex Mono SemiBold" font-size="53.763" font-weight="500" letter-spacing="-3.36" transform="rotate(-14 212.397 41.078)"><tspan x="183.5" y="61.078">/&gt;</tspan></text><text fill="#7A4CF5" font-family="IBMPlexMono-SemiBold, IBM Plex Mono SemiBold" font-size="53.763" font-weight="500" letter-spacing="-3.36" transform="rotate(-14 23.33 89.465)"><tspan x="8.88" y="109.465">&lt;</tspan></text><line x1="135.484" x2="167.054" y1="117.742" y2="124.368" stroke="#643CE4" stroke-linecap="round" stroke-linejoin="round" stroke-width="4.301"/><line x1="121.505" x2="163.599" y1="129.57" y2="138.404" stroke="#643CE4" stroke-linecap="round" stroke-linejoin="round" stroke-width="4.301"/><line x1="106.452" x2="159.069" y1="141.398" y2="152.441" stroke="#643CE4" stroke-linecap="round" stroke-linejoin="round" stroke-width="4.301"/></g><path fill="#5828D3" fill-rule="nonzero" d="M175.603538,16.4595465 L193.351301,87.6419356 C194.068665,90.5191247 192.321073,93.4338967 189.445257,94.1567454 L111.898069,113.648675 L95.3292949,138.469496 L93.1899642,136.200717 L93.9877886,133.089008 L90.4820685,119.031675 L65.3497591,125.348679 C63.0907574,125.916492 60.7230554,124.96506 59.4850608,122.992024 C58.6128089,121.601886 57.9003454,119.732382 57.3476703,117.383513 C53.9567634,103.783328 49.0512827,82.2612652 42.6312282,52.8173246 L42.4092382,51.7988783 C41.8037797,49.0199936 43.4673118,46.2502964 46.204893,45.4793042 C99.086499,30.5861183 138.493709,19.906637 164.426523,13.4408602 C166.582883,12.873397 168.422951,12.5270794 169.946726,12.4019073 C172.571676,12.1862727 174.966366,13.9039893 175.603538,16.4595465 Z"/><use fill="url(#chats-with-kent-b)" transform="translate(40.323 12.545)" xlink:href="#chats-with-kent-c"/><g transform="translate(72.58 57.885)"><path fill="#FFF" fill-rule="nonzero" d="M18.8286741 11.6039428C18.4184591 11.6039428 18.0824375 11.2679213 18.0824375 10.8577063L18.0824375 5.62974919C18.0824375 5.21953413 18.4184591 4.88351262 18.8286741 4.88351262 19.2388892 4.88351262 19.5749107 5.21953413 19.5749107 5.62974919L19.5749107 10.8562726C19.5749107 11.2678855 19.2388892 11.6039428 18.8286741 11.6039428L18.8286741 11.6039428zM25.5534054 10.8577063C25.1431903 10.8577063 24.8071688 10.5216847 24.8071688 10.1114697L24.8071688 6.37741945C24.8071688 5.96720439 25.1431903 5.63118288 25.5534054 5.63118288 25.9636205 5.63118288 26.299642 5.96720439 26.299642 6.37741945L26.299642 10.1114697C26.299642 10.5216847 25.9636205 10.8577063 25.5534054 10.8577063zM21.0702512 9.73763455C20.6600362 9.73763455 20.3240146 9.40161304 20.3240146 8.99139798L20.3240146 7.49749115C20.3240146 7.08727609 20.6600362 6.75125458 21.0702512 6.75125458 21.4804663 6.75125458 21.8164878 7.08727609 21.8164878 7.49749115L21.8164878 8.99139798C21.8164878 9.40161304 21.4804663 9.73763455 21.0702512 9.73763455zM23.3118283 12.3501794C22.9016132 12.3501794 22.5655917 12.0141579 22.5655917 11.6039428L22.5655917 4.88351262C22.5655917 4.47329756 22.9016132 4.13727605 23.3118283 4.13727605 23.7220434 4.13727605 24.0580649 4.47329756 24.0580649 4.88351262L24.0580649 11.6039428C24.0580649 12.0141579 23.7220434 12.3501794 23.3118283 12.3501794zM16.587097 13.8440862C16.176882 13.8440862 15.8408605 13.5080647 15.8408605 13.0978497L15.8408605 3.38960579C15.8408605 2.97939073 16.176882 2.64336922 16.587097 2.64336922 16.9973121 2.64336922 17.3333336 2.97939073 17.3333336 3.38960579L17.3333336 13.096416C17.3333336 13.5080289 16.9973121 13.8440862 16.587097 13.8440862L16.587097 13.8440862zM3.13763446 10.4838711C2.7274194 10.4838711 2.39139789 10.1478496 2.39139789 9.73763455L2.39139789 6.75125458C2.39139789 6.34103952 2.7274194 6.00501801 3.13763446 6.00501801 3.54784952 6.00501801 3.88387103 6.34103952 3.88387103 6.75125458L3.88387103 9.73763455C3.88387103 10.1478496 3.54784952 10.4838711 3.13763446 10.4838711zM.896057361 9.36379942C.485842301 9.36379942.149820791 9.02777791.149820791 8.61756285L.149820791 7.87132628C.149820791 7.46111122.485842301 7.12508971.896057361 7.12508971 1.30627242 7.12508971 1.64229393 7.46111122 1.64229393 7.87132628L1.64229393 8.61756285C1.64229393 9.02777791 1.30627242 9.36379942.896057361 9.36379942zM5.37921155 12.3501794C4.96899649 12.3501794 4.63297498 12.0141579 4.63297498 11.6039428L4.63297498 4.88351262C4.63297498 4.47329756 4.96899649 4.13727605 5.37921155 4.13727605 5.78942661 4.13727605 6.12544812 4.47329756 6.12544812 4.88351262L6.12544812 11.6039428C6.12544812 12.0141579 5.78942661 12.3501794 5.37921155 12.3501794zM7.62078864 9.73763455C7.21057358 9.73763455 6.87455207 9.40161304 6.87455207 8.99139798L6.87455207 7.49749115C6.87455207 7.08727609 7.21057358 6.75125458 7.62078864 6.75125458 8.0310037 6.75125458 8.36702521 7.08727609 8.36702521 7.49749115L8.36702521 8.99139798C8.36702521 9.40161304 8.0310037 9.73763455 7.62078864 9.73763455zM9.86236574 11.6039428C9.45215068 11.6039428 9.11612917 11.2679213 9.11612917 10.8577063L9.11612917 5.62974919C9.11612917 5.21953413 9.45215068 4.88351262 9.86236574 4.88351262 10.2725808 4.88351262 10.6086023 5.21953413 10.6086023 5.62974919L10.6086023 10.8562726C10.6086023 11.2678855 10.2725808 11.6039428 9.86236574 11.6039428L9.86236574 11.6039428zM12.1039428 13.8440862C11.6937278 13.8440862 11.3577063 13.5080647 11.3577063 13.0978497L11.3577063 3.38960579C11.3577063 2.97939073 11.6937278 2.64336922 12.1039428 2.64336922 12.5141579 2.64336922 12.8501794 2.97939073 12.8501794 3.38960579L12.8501794 13.096416C12.8501794 13.5080289 12.5141579 13.8440862 12.1039428 13.8440862L12.1039428 13.8440862zM14.3455199 16.4580648C13.9353049 16.4580648 13.5992834 16.1220433 13.5992834 15.7118282L13.5992834.777060943C13.5992834.366845884 13.9353049.0308243732 14.3455199.0308243732 14.755735.0308243732 15.0917565.366845884 15.0917565.777060943L15.0917565 15.7118282C15.0917565 16.1220433 14.755735 16.4580648 14.3455199 16.4580648zM27.7949825 9.36379942C27.3847674 9.36379942 27.0487459 9.02777791 27.0487459 8.61756285L27.0487459 7.87132628C27.0487459 7.46111122 27.3847674 7.12508971 27.7949825 7.12508971 28.2051976 7.12508971 28.5412191 7.46111122 28.5412191 7.87132628L28.5412191 8.61756285C28.5412191 9.02777791 28.2051976 9.36379942 27.7949825 9.36379942z" transform="rotate(-14 42.489 -88.036)"/><line x1="22.581" x2="85.597" y1="16.362" y2=".9" stroke="#4817C7" stroke-linecap="round" stroke-linejoin="round" stroke-width="3.584" opacity=".4"/><line x1="22.581" x2="53.988" y1="16.362" y2="8.656" stroke="#FFF" stroke-linecap="round" stroke-linejoin="round" stroke-width="3.584"/><path fill="#FFF" d="M2.94551833,14.2326883 L12.1147498,19.2315365 C12.3754514,19.3736648 12.4715741,19.7002231 12.3294457,19.9609247 C12.287035,20.0387173 12.2260558,20.1048225 12.1519316,20.1533607 L2.98270017,26.1575903 C2.73429232,26.3202537 2.40105329,26.250744 2.23838995,26.0023362 C2.18106961,25.9148006 2.15053772,25.8124413 2.15053772,25.7078081 L2.15053772,14.7047304 C2.15053772,14.4078031 2.39124485,14.1670959 2.68817215,14.1670959 C2.77808957,14.1670959 2.866571,14.1896481 2.94551833,14.2326883 Z" transform="rotate(-14 7.527 20.25)"/></g></g></svg>