<svg xmlns="http://www.w3.org/2000/svg" width="289" height="83" viewBox="0 0 289 83"><path fill="#F6F6F6" d="M189.916473 117.844995C185.750493 117.844995 182.337993 114.432496 182.337993 110.266516L182.337993 57.1734778C182.337993 53.0074979 185.750493 49.5949981 189.916473 49.5949981 194.082452 49.5949981 197.494952 53.0074979 197.494952 57.1734778L197.494952 110.251956C197.494952 114.432132 194.082452 117.844995 189.916473 117.844995L189.916473 117.844995zM258.21015 110.266516C254.04417 110.266516 250.63167 106.854016 250.63167 102.688038L250.63167 64.7665175C250.63167 60.6005376 254.04417 57.1880378 258.21015 57.1880378 262.37613 57.1880378 265.78863 60.6005376 265.78863 64.7665175L265.78863 102.688038C265.78863 106.854016 262.37613 110.266516 258.21015 110.266516zM212.681032 98.8915162C208.515052 98.8915162 205.102552 95.4790163 205.102552 91.3130365L205.102552 76.141517C205.102552 71.9755372 208.515052 68.5630373 212.681032 68.5630373 216.847012 68.5630373 220.259511 71.9755372 220.259511 76.141517L220.259511 91.3130365C220.259511 95.4790163 216.847012 98.8915162 212.681032 98.8915162zM235.445591 125.423475C231.279611 125.423475 227.867111 122.010975 227.867111 117.844995L227.867111 49.5949981C227.867111 45.4290182 231.279611 42.0165184 235.445591 42.0165184 239.611571 42.0165184 243.024071 45.4290182 243.024071 49.5949981L243.024071 117.844995C243.024071 122.010975 239.611571 125.423475 235.445591 125.423475zM167.151914 140.594995C162.985934 140.594995 159.573434 137.182495 159.573434 133.016515L159.573434 34.4234787C159.573434 30.2574988 162.985934 26.844999 167.151914 26.844999 171.317893 26.844999 174.730393 30.2574988 174.730393 34.4234787L174.730393 133.001955C174.730393 137.182131 171.317893 140.594995 167.151914 140.594995L167.151914 140.594995zM30.5645588 106.469996C26.398579 106.469996 22.9860791 103.057496 22.9860791 98.8915162L22.9860791 68.5630373C22.9860791 64.3970575 26.398579 60.9845576 30.5645588 60.9845576 34.7305386 60.9845576 38.1430385 64.3970575 38.1430385 68.5630373L38.1430385 98.8915162C38.1430385 103.057496 34.7305386 106.469996 30.5645588 106.469996zM7.79999969 95.0949963C3.63401986 95.0949963.221519989 91.6824964.221519989 87.5165166L.221519989 79.9380369C.221519989 75.7720571 3.63401986 72.3595572 7.79999969 72.3595572 11.9659795 72.3595572 15.3784794 75.7720571 15.3784794 79.9380369L15.3784794 87.5165166C15.3784794 91.6824964 11.9659795 95.0949963 7.79999969 95.0949963zM53.3291179 125.423475C49.1631381 125.423475 45.7506382 122.010975 45.7506382 117.844995L45.7506382 49.5949981C45.7506382 45.4290182 49.1631381 42.0165184 53.3291179 42.0165184 57.4950978 42.0165184 60.9075976 45.4290182 60.9075976 49.5949981L60.9075976 117.844995C60.9075976 122.010975 57.4950978 125.423475 53.3291179 125.423475zM76.093677 98.8915162C71.9276972 98.8915162 68.5151973 95.4790163 68.5151973 91.3130365L68.5151973 76.141517C68.5151973 71.9755372 71.9276972 68.5630373 76.093677 68.5630373 80.2596569 68.5630373 83.6721568 71.9755372 83.6721568 76.141517L83.6721568 91.3130365C83.6721568 95.4790163 80.2596569 98.8915162 76.093677 98.8915162zM98.8582362 117.844995C94.6922563 117.844995 91.2797565 114.432496 91.2797565 110.266516L91.2797565 57.1734778C91.2797565 53.0074979 94.6922563 49.5949981 98.8582362 49.5949981 103.024216 49.5949981 106.436716 53.0074979 106.436716 57.1734778L106.436716 110.251956C106.436716 114.432132 103.024216 117.844995 98.8582362 117.844995L98.8582362 117.844995zM121.622795 140.594995C117.456815 140.594995 114.044316 137.182495 114.044316 133.016515L114.044316 34.4234787C114.044316 30.2574988 117.456815 26.844999 121.622795 26.844999 125.788775 26.844999 129.201275 30.2574988 129.201275 34.4234787L129.201275 133.001955C129.201275 137.182131 125.788775 140.594995 121.622795 140.594995L121.622795 140.594995zM144.387354 167.141514C140.221375 167.141514 136.808875 163.729014 136.808875 159.563034L136.808875 7.89151969C136.808875 3.72553986 140.221375.313039988 144.387354.313039988 148.553334.313039988 151.965834 3.72553986 151.965834 7.89151969L151.965834 159.563034C151.965834 163.729014 148.553334 167.141514 144.387354 167.141514zM280.974709 95.0949963C276.808729 95.0949963 273.396229 91.6824964 273.396229 87.5165166L273.396229 79.9380369C273.396229 75.7720571 276.808729 72.3595572 280.974709 72.3595572 285.140689 72.3595572 288.553189 75.7720571 288.553189 79.9380369L288.553189 87.5165166C288.553189 91.6824964 285.140689 95.0949963 280.974709 95.0949963z"/></svg>