<svg xmlns="http://www.w3.org/2000/svg" width="227" height="140" viewBox="0 0 227 140">
  <defs>
    <linearGradient id="talks-a" x1="50%" x2="50%" y1="19.741%" y2="100%">
      <stop offset="0%" stop-color="#327CDC"/>
      <stop offset="100%" stop-color="#418FF3"/>
    </linearGradient>
    <linearGradient id="talks-b" x1="50%" x2="50%" y1="100%" y2="0%">
      <stop offset="0%" stop-color="#418FF3"/>
      <stop offset="100%" stop-color="#327CDC"/>
    </linearGradient>
  </defs>
  <g fill="none" fill-rule="evenodd" transform="translate(-13)">
    <rect width="227" height="140" x="13" fill="#327CDC" fill-rule="nonzero"/>
    <g transform="translate(0 5)">
      <rect width="161" height="92" x="46" y="8" fill="#418FF3" fill-rule="nonzero" rx="3"/>
      <path fill="#418FF3" fill-rule="nonzero" d="M47.3271097,102 L205.67289,102 C206.518125,102 207.324144,102.356558 207.892711,102.981982 L227,124 L26,124 L45.1072894,102.981982 C45.675856,102.356558 46.4818747,102 47.3271097,102 Z"/>
      <path stroke="#327CDC" stroke-linecap="square" d="M36.5,112.954545 L216.564453,112.954545"/>
      <path fill="url(#talks-a)" fill-rule="nonzero" d="M209 100.86245L209 29.33289C209 28.4842901 209.359393 27.675387 209.989141 27.1065821L240 1.8189894e-12 240 137 209.754235 102.851556C209.268293 102.302911 209 101.595357 209 100.86245zM44 100.86245C44 101.595357 43.7317074 102.302911 43.2457645 102.851556L13 137 13-1.8189894e-12 43.0108588 27.1065821C43.640607 27.675387 44 28.4842901 44 29.33289L44 100.86245z"/>
      <path fill="#418FF3" fill-rule="nonzero" d="M26.5360872,125 L226.463913,125 C227.314372,125 228.124868,125.360964 228.693795,125.993106 L253,153 L0,153 L24.3062048,125.993106 C24.8751322,125.360964 25.6856277,125 26.5360872,125 Z"/>
      <polygon fill="url(#talks-b)" fill-opacity=".8" fill-rule="nonzero" points="44 100 207 100 239.39 135 16 135"/>
      <path stroke="#327CDC" stroke-linecap="square" d="M126.532227,102 L126.532227,137"/>
      <path stroke="#327CDC" stroke-linecap="square" d="M0.532226563,0 L13.5322266,35" transform="translate(166 102)"/>
      <path stroke="#327CDC" stroke-linecap="square" d="M0.532226563,0 L13.5322266,35" transform="matrix(-1 0 0 1 87 102)"/>
      <path fill="#327CDC" d="M8.26624204,5.53246753 L0.347770701,10.6038961 C0.240764331,10.665368 0.160509554,10.665368 0.107006369,10.6038961 C0.0535031847,10.5424242 0.0178343949,10.4604618 0,10.3580087 L0,0.276623377 C0,0.153679654 0.0356687898,0.0717171717 0.107006369,0.0307359307 C0.178343949,-0.0102453102 0.258598726,-0.0102453102 0.347770701,0.0307359307 L8.26624204,5.1021645 C8.35541401,5.16363636 8.4,5.23535354 8.4,5.31731602 C8.4,5.3992785 8.35541401,5.47099567 8.26624204,5.53246753 Z" transform="translate(123 51)"/>
    </g>
  </g>
</svg>
