<svg xmlns="http://www.w3.org/2000/svg" width="227" height="140" viewBox="0 0 227 140">
  <g fill="none" fill-rule="evenodd">
    <rect width="227" height="140" fill="#E75248" fill-rule="nonzero"/>
    <g transform="translate(84 25)">
      <ellipse cx="29" cy="82" fill="#FB6F66" fill-rule="nonzero" rx="8" ry="3"/>
      <g fill="#FB6F66" transform="translate(7)">
        <path fill-rule="nonzero" d="M23.0408497,0 L20.9993639,0 C10.3142702,0.496658963 0.517479965,10.4165051 0.0270889746,21.2359249 C-0.228100994,26.4072364 1.32620088,31.5012296 4.41507022,35.625736 C7.04324353,39.048707 9.35978948,42.706554 11.3350131,46.5525425 C15.1230714,54.4253585 18.254956,62.6072763 20.6940149,71.0100669 C20.8497776,71.593984 21.3734185,72 21.9732736,72 C22.5731371,72 23.096761,71.593941 23.2525323,71.0100669 C25.7083052,62.6003176 28.8568189,54.4158226 32.664985,46.5396561 C34.6402086,42.6938395 36.9568394,39.0359924 39.5849279,35.6128496 C42.6737123,31.488515 44.228116,26.3947796 43.9729091,21.2230385 C43.5221821,10.4173642 33.7256039,0.497414965 23.0405103,0.000859093203 L23.0408497,0 Z M35.2768685,24.1619963 C35.2503551,24.4203944 35.0813314,24.6385268 34.8394024,24.7257763 L32.2676495,25.5043295 C32.0323466,26.4440056 31.6711033,27.3466548 31.1938799,28.1889957 L32.347232,30.632085 C32.4532854,30.8669954 32.4168293,31.1455306 32.254431,31.3435172 C31.7142203,32.0046152 31.1177081,32.6087038 30.4647584,33.1556884 C30.2692213,33.3201275 29.9941442,33.3570427 29.7621588,33.2496561 L27.3229302,32.0952066 C26.4910727,32.5784465 25.5996047,32.9442312 24.6715949,33.182475 L23.7833763,35.7194631 C23.7436063,35.9610831 23.5745868,36.1624288 23.3459102,36.2429773 L22.0202425,36.2429773 L20.6945748,36.2429773 C20.4393849,36.2161307 20.2239607,36.0449821 20.1377944,35.8000117 L19.3689071,33.1959284 C18.4408973,32.9576675 17.5494548,32.5918828 16.7175718,32.10866 L14.3048142,33.2765113 C14.0728202,33.383898 13.7977431,33.3469836 13.6022145,33.1825437 C12.9493243,32.6355419 12.3527356,32.0315306 11.8125419,31.3703725 C11.6501445,31.1723773 11.6136876,30.8938421 11.719741,30.6589402 L12.8598576,28.1890473 C12.3826172,27.3467322 12.0213738,26.4440572 11.786088,25.504381 L9.28059727,24.6049963 C9.04197709,24.5647263 8.84313118,24.3935821 8.76358263,24.1620307 L8.76358263,22.8196976 L8.76358263,21.4773644 C8.79009599,21.2189664 8.95911968,21.000834 9.20104873,20.9135845 L11.7728016,20.1350313 C12.0081044,19.1953552 12.3693478,18.2927059 12.8465712,17.4503651 L11.6932191,15.0072758 C11.5871657,14.7723654 11.6236218,14.4938302 11.7860201,14.2958435 C12.3262308,13.6347455 12.922743,13.030657 13.5756927,12.4836723 C13.7712297,12.3192333 14.0463068,12.2823181 14.2782923,12.3897047 L16.6910499,13.557556 C17.5229075,13.0743161 18.4143755,12.7085314 19.3423853,12.4702877 L20.2306039,9.93329953 C20.2703739,9.67825194 20.4526543,9.47019674 20.6945918,9.39636627 C21.5761926,9.30911677 22.4643263,9.30911677 23.3459272,9.39636627 C23.6011171,9.42321294 23.8165413,9.59436148 23.9027076,9.83933191 L24.6715949,12.4434152 C25.5996047,12.6816761 26.4910472,13.0474608 27.3229302,13.5306836 L29.7356878,12.3628323 C29.9676818,12.2554456 30.2427589,12.29236 30.4382875,12.4567999 C31.0911777,13.0038017 31.6877664,13.607813 32.22796,14.2689711 C32.3903575,14.4669663 32.4268144,14.7455015 32.320761,14.9804034 L31.1806444,17.4502963 C31.6578848,18.2926114 32.0191281,19.1952864 32.254414,20.1349626 L34.7599047,21.0343473 C34.9985249,21.0746173 35.1973708,21.2457615 35.2769194,21.4773129 L35.2769194,22.819646 L35.2769194,24.1619792 L35.2768685,24.1619963 Z"/>
        <path d="M28,23 C28,26.3149952 25.3149952,29 22,29 C18.6850048,29 16,26.3149952 16,23 C16,19.6850048 18.6850048,17 22,17 C25.3149952,17 28,19.6850048 28,23"/>
      </g>
      <text fill="#E75248" stroke="#FB6F66" stroke-width="5" font-family="AndaleMono, Andale Mono" font-size="22">
        <tspan x="0" y="70">&lt;</tspan>
      </text>
      <text fill="#E75248" stroke="#FB6F66" stroke-width="5" font-family="AndaleMono, Andale Mono" font-size="22">
        <tspan x="45" y="70">&gt;</tspan>
      </text>
    </g>
  </g>
</svg>
