<svg xmlns="http://www.w3.org/2000/svg" width="14" height="14" viewBox="0 0 14 14"><path fill="#8E7BED" d="M11.2,6.174 C10.8134007,6.174 10.5,6.48740068 10.5,6.874 L10.5,11.9 C10.5,12.2865993 10.1865993,12.6 9.8,12.6 L2.1,12.6 C1.71340068,12.6 1.4,12.2865993 1.4,11.9 L1.4,4.2 C1.4,3.81340068 1.71340068,3.5 2.1,3.5 L7.126,3.5 C7.51259932,3.5 7.826,3.18659932 7.826,2.8 C7.826,2.41340068 7.51259932,2.1 7.126,2.1 L2.1,2.1 C0.940202025,2.1 0,3.04020203 0,4.2 L0,11.9 C0,13.059798 0.940202025,14 2.1,14 L9.8,14 C10.959798,14 11.9,13.059798 11.9,11.9 L11.9,6.874 C11.9,6.48740068 11.5865993,6.174 11.2,6.174 Z M13.944,0.434 C13.8729676,0.262955477 13.7370445,0.127032445 13.566,0.056 C13.4818444,0.0201313177 13.3914741,0.00110599119 13.3,0 L9.1,0 C8.71340068,0 8.4,0.313400675 8.4,0.7 C8.4,1.08659932 8.71340068,1.4 9.1,1.4 L11.613,1.4 L4.403,8.603 C4.27048114,8.73443662 4.19594117,8.91335372 4.19594117,9.1 C4.19594117,9.28664628 4.27048114,9.46556338 4.403,9.597 C4.53443662,9.72951886 4.71335372,9.80405883 4.9,9.80405883 C5.08664628,9.80405883 5.26556338,9.72951886 5.397,9.597 L12.6,2.387 L12.6,4.9 C12.6,5.28659932 12.9134007,5.6 13.3,5.6 C13.6865993,5.6 14,5.28659932 14,4.9 L14,0.7 C13.998894,0.60852592 13.9798687,0.518155619 13.944,0.434 Z"/></svg>