<svg xmlns="http://www.w3.org/2000/svg" width="30" height="42" viewBox="0 0 30 42"><g fill="none" transform="translate(1)"><path fill="#FFF" stroke="#EAEAEA" d="M27,41 L1,41 C0.448,41 0,40.552 0,40 L0,8 C0,7.448 0.448,7 1,7 L27,7 C27.552,7 28,7.448 28,8 L28,40 C28,40.552 27.552,41 27,41 Z"/><path fill="#EFD358" d="M18,4 C18,1.791 16.209,0 14,0 C11.791,0 10,1.791 10,4 L7,4 C6.448,4 6,4.448 6,5 L6,9 C6,9.552 6.448,10 7,10 L21,10 C21.552,10 22,9.552 22,9 L22,5 C22,4.448 21.552,4 21,4 L18,4 Z"/><circle cx="14" cy="4" r="1" fill="#B29930"/><path fill="#17A974" d="M12,30 C11.744,30 11.488,29.902 11.293,29.707 L7.293,25.707 C6.902,25.316 6.902,24.684 7.293,24.293 C7.684,23.902 8.316,23.902 8.707,24.293 L12,27.586 L19.293,20.293 C19.684,19.902 20.316,19.902 20.707,20.293 C21.098,20.684 21.098,21.316 20.707,21.707 L12.707,29.707 C12.512,29.902 12.256,30 12,30 Z"/></g></svg>