<svg xmlns="http://www.w3.org/2000/svg" width="25" height="25" viewBox="0 0 25 25">
  <g fill="none" fill-rule="evenodd">
    <rect width="25" height="25" fill="#FFE538" rx="3"/>
    <path fill="#323330" fill-rule="nonzero" d="M11.5321691,13.8469799 C11.5321691,14.1852367 11.4943323,14.5395954 11.4186581,14.9100671 C11.3429836,15.2805388 11.2035855,15.6208038 11.0004596,15.9308725 C10.7973334,16.2409412 10.5145544,16.4966433 10.152114,16.6979866 C9.78967325,16.8993299 9.32169386,17 8.74816176,17 C8.03124642,17 7.43382592,16.8127535 6.95588235,16.438255 C6.47793879,16.0637566 6.15931452,15.5825532 6,14.9946309 L7.80422794,14.3785235 C7.85998784,14.6040279 7.96154945,14.7852341 8.10891544,14.9221477 C8.25628143,15.0590612 8.43749881,15.1275168 8.65257353,15.1275168 C8.98713385,15.1275168 9.20817955,15.0107394 9.31571691,14.7771812 C9.42325427,14.5436231 9.47702206,14.2375859 9.47702206,13.8590604 L9.47702206,8.21744966 L11.5321691,8.21744966 L11.5321691,13.8469799 Z M17.6976103,10.4402685 C17.5223642,10.2147641 17.293353,10.0355711 17.0105699,9.90268456 C16.7277864,9.76979805 16.4549644,9.7033557 16.1920956,9.7033557 C16.0566781,9.7033557 15.9192715,9.71543624 15.7798713,9.73959732 C15.6404711,9.76375839 15.5150128,9.81006671 15.4034926,9.87852349 C15.2919725,9.94698027 15.1983764,10.0355699 15.1227022,10.1442953 C15.0470277,10.2530207 15.0091912,10.3919454 15.0091912,10.5610738 C15.0091912,10.7060409 15.0390622,10.826845 15.0988051,10.9234899 C15.1585481,11.0201348 15.2461696,11.1046977 15.3616728,11.1771812 C15.4771756,11.2496647 15.6145825,11.3161071 15.7738971,11.3765101 C15.9332116,11.4369131 16.1124377,11.4993287 16.3115809,11.5637584 C16.5983471,11.6604033 16.8970573,11.7671134 17.2077206,11.8838926 C17.5183838,12.0006718 17.8011628,12.1557038 18.0560662,12.3489933 C18.3109692,12.5422828 18.5220579,12.7818779 18.6893382,13.0677852 C18.8566185,13.3536926 18.9402574,13.7100651 18.9402574,14.1369128 C18.9402574,14.6281904 18.8506443,15.0530182 18.6714154,15.4114094 C18.4921866,15.7698006 18.2512269,16.0657707 17.9485294,16.2993289 C17.6458316,16.532887 17.2993279,16.7060398 16.9090074,16.8187919 C16.5186868,16.9315441 16.1164235,16.9879195 15.7022059,16.9879195 C15.0968106,16.9879195 14.5113387,16.8812091 13.9457721,16.6677852 C13.3802054,16.4543614 12.9102345,16.1503375 12.5358456,15.7557047 L13.8740809,14.3785235 C14.0811898,14.636243 14.3540118,14.851677 14.6925551,15.0248322 C15.0310985,15.1979874 15.3676453,15.2845638 15.7022059,15.2845638 C15.8535546,15.2845638 16.0009182,15.2684565 16.1443015,15.2362416 C16.2876844,15.2040267 16.4131428,15.1516782 16.5206801,15.0791946 C16.6282175,15.0067111 16.7138475,14.9100677 16.7775735,14.7892617 C16.8412992,14.6684558 16.8731618,14.5234908 16.8731618,14.3543624 C16.8731618,14.1932878 16.8333337,14.0563763 16.7536765,13.9436242 C16.6740192,13.830872 16.5605094,13.7281883 16.4131434,13.6355705 C16.2657774,13.5429526 16.0825685,13.4583898 15.863511,13.3818792 C15.6444536,13.3053686 15.3955284,13.2228193 15.1167279,13.1342282 C14.8458933,13.0456371 14.5810368,12.9409402 14.3221507,12.8201342 C14.0632646,12.6993283 13.8322619,12.5442963 13.629136,12.3550336 C13.4260098,12.1657708 13.262715,11.936243 13.1392463,11.666443 C13.0157774,11.3966429 12.9540441,11.0684582 12.9540441,10.6818792 C12.9540441,10.2067091 13.0496315,9.80000181 13.2408088,9.46174497 C13.4319862,9.12348812 13.6829029,8.84563879 13.9935662,8.62818792 C14.3042294,8.41073705 14.6547162,8.25167836 15.0450368,8.15100671 C15.4353573,8.05033507 15.8296549,8 16.2279412,8 C16.7058847,8 17.1937781,8.0885896 17.691636,8.26577181 C18.1894939,8.44295403 18.6256108,8.70469638 19,9.05100671 L17.6976103,10.4402685 Z"/>
  </g>
</svg>
