<?xml version="1.0" standalone="no"?>
<!DOCTYPE svg PUBLIC "-//W3C//DTD SVG 20010904//EN"
 "http://www.w3.org/TR/2001/REC-SVG-20010904/DTD/svg10.dtd">
<svg version="1.0" xmlns="http://www.w3.org/2000/svg"
 width="805.000000pt" height="805.000000pt" viewBox="0 0 805.000000 805.000000"
 preserveAspectRatio="xMidYMid meet">
<metadata>
Created by potrace 1.11, written by Peter Selinger 2001-2013
</metadata>
<g transform="translate(0.000000,805.000000) scale(0.100000,-0.100000)"
fill="#000000" stroke="none">
<path d="M3843 8039 c-153 -19 -238 -38 -368 -81 -219 -72 -453 -205 -665
-375 -123 -99 -362 -340 -460 -463 -14 -17 -32 -40 -40 -49 -8 -10 -26 -33
-40 -51 -14 -19 -41 -54 -60 -79 -52 -67 -238 -351 -304 -464 -94 -160 -132
-231 -244 -458 l-106 -216 -96 -18 c-52 -9 -133 -26 -180 -37 -47 -11 -92 -21
-100 -23 -44 -9 -147 -38 -230 -64 -302 -94 -433 -162 -561 -291 -115 -116
-192 -249 -240 -415 -20 -68 -23 -103 -24 -240 0 -145 8 -300 19 -365 2 -14 7
-50 11 -80 8 -72 44 -304 49 -322 3 -7 8 -30 11 -52 7 -50 43 -229 57 -281 6
-22 12 -51 14 -65 16 -90 73 -270 114 -356 102 -212 272 -389 457 -475 57 -26
59 -30 68 -104 3 -27 7 -57 10 -65 2 -8 6 -37 10 -65 9 -79 63 -260 110 -370
7 -16 34 -84 60 -150 186 -469 505 -910 890 -1230 33 -28 62 -52 65 -55 7 -8
176 -129 230 -166 69 -47 255 -154 268 -154 7 0 12 -4 12 -10 0 -5 4 -10 9
-10 5 0 51 -19 103 -43 51 -24 125 -56 163 -71 39 -16 79 -32 90 -37 77 -31
387 -116 485 -133 19 -3 46 -8 59 -11 13 -2 49 -7 80 -11 31 -3 59 -8 62 -10
38 -22 730 -22 768 0 3 2 33 7 66 11 32 3 62 8 65 10 3 1 28 6 55 9 79 11 279
62 415 107 523 173 984 477 1352 892 40 45 75 84 78 87 29 26 185 246 251 355
172 280 361 742 398 975 7 41 14 86 17 100 2 14 7 46 10 71 6 45 8 46 73 78
194 96 367 279 467 496 30 66 101 311 118 410 3 17 14 73 25 125 29 139 35
169 45 238 2 15 9 54 15 87 6 33 13 83 17 110 3 28 8 58 10 69 2 10 6 51 10
90 3 39 8 73 10 76 3 6 15 198 18 304 2 55 -5 140 -19 215 -10 57 -53 171 -91
240 -89 162 -239 302 -409 381 -159 73 -498 177 -695 214 -14 2 -72 14 -130
25 -58 12 -106 21 -106 21 -1 0 -12 24 -24 53 -19 43 -82 172 -166 337 -148
293 -404 683 -609 929 -426 512 -900 813 -1405 891 -91 14 -332 19 -417 9z"/>
</g>
</svg>
